<svg width="24" height="18" viewBox="0 0 24 18" fill="none" xmlns="http://www.w3.org/2000/svg">
<path d="M17 15.6708H5C4.20435 15.6708 3.44129 15.4115 2.87868 14.9499C2.31607 14.4882 2 13.8621 2 13.2093V6.6452C2 6.42759 1.89464 6.21889 1.70711 6.06501C1.51957 5.91114 1.26522 5.82469 1 5.82469C0.734784 5.82469 0.48043 5.91114 0.292893 6.06501C0.105357 6.21889 0 6.42759 0 6.6452L0 13.2093C0 14.2974 0.526784 15.3409 1.46447 16.1103C2.40215 16.8796 3.67392 17.3119 5 17.3119H17C17.2652 17.3119 17.5196 17.2254 17.7071 17.0715C17.8946 16.9177 18 16.709 18 16.4914C18 16.2737 17.8946 16.065 17.7071 15.9112C17.5196 15.7573 17.2652 15.6708 17 15.6708ZM21 0.901611H7C6.20435 0.901611 5.44129 1.16095 4.87868 1.62258C4.31607 2.08421 4 2.71031 4 3.36315V11.5683C4 12.2211 4.31607 12.8472 4.87868 13.3088C5.44129 13.7705 6.20435 14.0298 7 14.0298H21C21.7956 14.0298 22.5587 13.7705 23.1213 13.3088C23.6839 12.8472 24 12.2211 24 11.5683V3.36315C24 2.71031 23.6839 2.08421 23.1213 1.62258C22.5587 1.16095 21.7956 0.901611 21 0.901611V0.901611ZM20.59 2.54264L14.71 7.36725C14.617 7.44416 14.5064 7.5052 14.3846 7.54686C14.2627 7.58851 14.132 7.60996 14 7.60996C13.868 7.60996 13.7373 7.58851 13.6154 7.54686C13.4936 7.5052 13.383 7.44416 13.29 7.36725L7.41 2.54264H20.59ZM22 11.5683C22 11.7859 21.8946 11.9946 21.7071 12.1485C21.5196 12.3023 21.2652 12.3888 21 12.3888H7C6.73478 12.3888 6.48043 12.3023 6.29289 12.1485C6.10536 11.9946 6 11.7859 6 11.5683V3.66674L11.88 8.49136C12.4425 8.95232 13.205 9.21124 14 9.21124C14.795 9.21124 15.5575 8.95232 16.12 8.49136L22 3.66674V11.5683Z" fill="white"/>
</svg>
