<svg width="50" height="50" viewBox="0 0 50 50" fill="none" xmlns="http://www.w3.org/2000/svg">
<path fill-rule="evenodd" clip-rule="evenodd" d="M43.75 50H6.25C2.79688 50 0 47.2031 0 43.75V6.25C0 2.79688 2.79688 0 6.25 0H32.5312L29.9219 2.6125L26.2969 6.25H6.25V43.75H43.75V23.5844L47.3312 20.0063L50 17.3375V43.75C50 47.2031 47.2031 50 43.75 50ZM38.8438 19.6875L31.1562 27.375C30.1875 28.2625 29.025 28.9219 27.7594 29.2969L20.2594 31.1719C19.8375 31.3594 19.3438 31.2656 19.0187 30.9344C18.6938 30.6063 18.6 30.1125 18.7844 29.6906L20.6594 22.1906C21.0344 20.925 21.6906 19.7625 22.5875 18.7906L30.275 11.1031L35.975 5.40937L44.5625 13.9906L38.8438 19.6875ZM47.3125 11.2313L38.7188 2.65L39.5781 1.79375C41.1094 0.2625 43.3469 -0.3375 45.4406 0.221875C47.5406 0.784375 49.175 2.42188 49.7375 4.51875C50.3 6.6125 49.7 8.84688 48.1656 10.3813L47.3125 11.2375V11.2313Z" fill="white"/>
</svg>
