<svg width="60" height="50" viewBox="0 0 60 50" fill="none" xmlns="http://www.w3.org/2000/svg">
<path d="M50.4167 8.95832H46.6833L45.75 6.04165C45.1449 4.33024 44.0226 2.84937 42.5385 1.8042C41.0543 0.759037 39.2819 0.201319 37.4667 0.208317H22.5333C20.7003 0.211746 18.9147 0.790726 17.4285 1.86354C15.9422 2.93636 14.8304 4.44883 14.25 6.18748L13.3167 9.10415H9.58333C7.26269 9.10415 5.03709 10.026 3.39615 11.667C1.7552 13.3079 0.833332 15.5335 0.833332 17.8542V41.1875C0.833332 43.5081 1.7552 45.7337 3.39615 47.3747C5.03709 49.0156 7.26269 49.9375 9.58333 49.9375H50.4167C52.7373 49.9375 54.9629 49.0156 56.6038 47.3747C58.2448 45.7337 59.1667 43.5081 59.1667 41.1875V17.8542C59.186 16.6929 58.974 15.5394 58.5429 14.4609C58.1119 13.3824 57.4704 12.4005 56.656 11.5725C55.8415 10.7445 54.8704 10.0869 53.7992 9.63804C52.728 9.18922 51.5781 8.95816 50.4167 8.95832ZM53.3333 41.0417C53.3333 41.8152 53.026 42.5571 52.4791 43.104C51.9321 43.651 51.1902 43.9583 50.4167 43.9583H9.58333C8.80978 43.9583 8.06792 43.651 7.52094 43.104C6.97396 42.5571 6.66667 41.8152 6.66667 41.0417V17.7083C6.66667 16.9348 6.97396 16.1929 7.52094 15.6459C8.06792 15.0989 8.80978 14.7917 9.58333 14.7917H15.4167C16.0527 14.8248 16.6821 14.6489 17.2088 14.2908C17.7354 13.9327 18.1304 13.412 18.3333 12.8083L19.9083 8.02498C20.104 7.44567 20.4768 6.94251 20.974 6.58661C21.4712 6.23071 22.0677 6.04007 22.6792 6.04165H37.6125C38.224 6.04007 38.8204 6.23071 39.3177 6.58661C39.8149 6.94251 40.1877 7.44567 40.3833 8.02498L41.9583 12.8083C42.1455 13.3647 42.4962 13.8516 42.9645 14.2054C43.4328 14.5593 43.997 14.7636 44.5833 14.7917H50.4167C51.1902 14.7917 51.9321 15.0989 52.4791 15.6459C53.026 16.1929 53.3333 16.9348 53.3333 17.7083V41.0417ZM30 14.7917C27.6925 14.7917 25.4369 15.4759 23.5183 16.7578C21.5998 18.0398 20.1044 19.8619 19.2214 21.9937C18.3384 24.1255 18.1073 26.4713 18.5575 28.7344C19.0077 30.9975 20.1188 33.0763 21.7504 34.7079C23.382 36.3395 25.4608 37.4507 27.7239 37.9008C29.9871 38.351 32.3328 38.1199 34.4646 37.2369C36.5964 36.3539 38.4185 34.8585 39.7005 32.94C40.9824 31.0214 41.6667 28.7658 41.6667 26.4583C41.6667 23.3641 40.4375 20.3967 38.2496 18.2087C36.0617 16.0208 33.0942 14.7917 30 14.7917V14.7917ZM30 32.2917C28.8463 32.2917 27.7185 31.9495 26.7592 31.3086C25.7999 30.6676 25.0522 29.7565 24.6107 28.6906C24.1692 27.6247 24.0537 26.4518 24.2787 25.3203C24.5038 24.1887 25.0594 23.1493 25.8752 22.3335C26.691 21.5177 27.7304 20.9622 28.862 20.7371C29.9935 20.512 31.1664 20.6275 32.2323 21.069C33.2982 21.5105 34.2093 22.2582 34.8502 23.2175C35.4912 24.1768 35.8333 25.3046 35.8333 26.4583C35.8333 28.0054 35.2187 29.4891 34.1248 30.5831C33.0308 31.6771 31.5471 32.2917 30 32.2917Z" fill="white"/>
</svg>
