<svg width="50" height="50" viewBox="0 0 50 50" fill="none" xmlns="http://www.w3.org/2000/svg">
<path d="M47.5 0C46.837 0 46.2011 0.263392 45.7322 0.732233C45.2634 1.20107 45 1.83696 45 2.5V7.5H40V2.5C40 1.83696 39.7366 1.20107 39.2678 0.732233C38.7989 0.263392 38.163 0 37.5 0C36.837 0 36.2011 0.263392 35.7322 0.732233C35.2634 1.20107 35 1.83696 35 2.5V5H15V2.5C15 1.83696 14.7366 1.20107 14.2678 0.732233C13.7989 0.263392 13.163 0 12.5 0C11.837 0 11.2011 0.263392 10.7322 0.732233C10.2634 1.20107 10 1.83696 10 2.5V7.5H5V2.5C5 1.83696 4.73661 1.20107 4.26777 0.732233C3.79893 0.263392 3.16304 0 2.5 0C1.83696 0 1.20107 0.263392 0.732233 0.732233C0.263392 1.20107 0 1.83696 0 2.5V47.5C0 48.163 0.263392 48.7989 0.732233 49.2678C1.20107 49.7366 1.83696 50 2.5 50C3.16304 50 3.79893 49.7366 4.26777 49.2678C4.73661 48.7989 5 48.163 5 47.5V42.5H10V47.5C10 48.163 10.2634 48.7989 10.7322 49.2678C11.2011 49.7366 11.837 50 12.5 50C13.163 50 13.7989 49.7366 14.2678 49.2678C14.7366 48.7989 15 48.163 15 47.5V45H35V47.5C35 48.163 35.2634 48.7989 35.7322 49.2678C36.2011 49.7366 36.837 50 37.5 50C38.163 50 38.7989 49.7366 39.2678 49.2678C39.7366 48.7989 40 48.163 40 47.5V42.5H45V47.5C45 48.163 45.2634 48.7989 45.7322 49.2678C46.2011 49.7366 46.837 50 47.5 50C48.163 50 48.7989 49.7366 49.2678 49.2678C49.7366 48.7989 50 48.163 50 47.5V2.5C50 1.83696 49.7366 1.20107 49.2678 0.732233C48.7989 0.263392 48.163 0 47.5 0V0ZM10 37.5H5V32.5H10V37.5ZM10 27.5H5V22.5H10V27.5ZM10 17.5H5V12.5H10V17.5ZM35 40H15V27.5H35V40ZM35 22.5H15V10H35V22.5ZM45 37.5H40V32.5H45V37.5ZM45 27.5H40V22.5H45V27.5ZM45 17.5H40V12.5H45V17.5Z" fill="white"/>
</svg>
