<svg width="50" height="50" viewBox="0 0 50 50" fill="none" xmlns="http://www.w3.org/2000/svg">
<path fill-rule="evenodd" clip-rule="evenodd" d="M43.7313 40H28.1375C28.1375 40.89 28.4719 41.7433 29.0625 42.3667C29.6562 43 30.4594 43.3433 31.2938 43.3333H37.4813C38.5969 43.3267 39.6313 43.9567 40.2 44.9867C40.7625 46.0133 40.7625 47.2867 40.2125 48.32C39.6562 49.3533 38.6281 49.9933 37.5125 50H12.5125C10.7875 50 9.3875 48.5067 9.3875 46.6667C9.39687 44.8333 10.7938 43.3433 12.5125 43.3333H18.6562C19.4906 43.3433 20.2938 43 20.8875 42.3667C21.4813 41.7433 21.8125 40.89 21.8125 40H6.27187C2.81875 40 0.0125 37.0167 0 33.3333V6.66671C0 4.89338 0.6625 3.20004 1.8375 1.94338C3.01562 0.69338 4.60937 -0.00661947 6.275 4.71862e-05H43.7188C47.1781 -0.00661947 49.9906 2.97671 50 6.66671V33.3667C49.9813 37.0433 47.1781 40.01 43.7313 40ZM43.7313 6.66671H6.2625L6.28437 33.3333H43.7656L43.7344 6.66671H43.7313Z" fill="white"/>
</svg>
