<svg width="48" height="60" viewBox="0 0 48 60" fill="none" xmlns="http://www.w3.org/2000/svg">
<path d="M26.9167 35.8333H15.25C14.4765 35.8333 13.7346 36.1405 13.1876 36.6875C12.6406 37.2345 12.3333 37.9764 12.3333 38.7499C12.3333 39.5235 12.6406 40.2653 13.1876 40.8123C13.7346 41.3593 14.4765 41.6666 15.25 41.6666H26.9167C27.6902 41.6666 28.4321 41.3593 28.9791 40.8123C29.526 40.2653 29.8333 39.5235 29.8333 38.7499C29.8333 37.9764 29.526 37.2345 28.9791 36.6875C28.4321 36.1405 27.6902 35.8333 26.9167 35.8333ZM38.5833 6.66658H35.1417C34.5399 4.96457 33.4265 3.49033 31.9539 2.44599C30.4814 1.40165 28.7219 0.838326 26.9167 0.833252H21.0833C19.2781 0.838326 17.5186 1.40165 16.0461 2.44599C14.5735 3.49033 13.4601 4.96457 12.8583 6.66658H9.41667C7.09603 6.66658 4.87043 7.58846 3.22949 9.2294C1.58854 10.8703 0.666672 13.0959 0.666672 15.4166V50.4166C0.666672 52.7372 1.58854 54.9628 3.22949 56.6038C4.87043 58.2447 7.09603 59.1666 9.41667 59.1666H38.5833C40.904 59.1666 43.1296 58.2447 44.7705 56.6038C46.4115 54.9628 47.3333 52.7372 47.3333 50.4166V15.4166C47.3333 13.0959 46.4115 10.8703 44.7705 9.2294C43.1296 7.58846 40.904 6.66658 38.5833 6.66658V6.66658ZM18.1667 9.58325C18.1667 8.8097 18.474 8.06784 19.0209 7.52086C19.5679 6.97388 20.3098 6.66658 21.0833 6.66658H26.9167C27.6902 6.66658 28.4321 6.97388 28.9791 7.52086C29.526 8.06784 29.8333 8.8097 29.8333 9.58325V12.4999H18.1667V9.58325ZM41.5 50.4166C41.5 51.1901 41.1927 51.932 40.6457 52.479C40.0988 53.026 39.3569 53.3332 38.5833 53.3332H9.41667C8.64312 53.3332 7.90126 53.026 7.35428 52.479C6.8073 51.932 6.5 51.1901 6.5 50.4166V15.4166C6.5 14.643 6.8073 13.9012 7.35428 13.3542C7.90126 12.8072 8.64312 12.4999 9.41667 12.4999H12.3333V15.4166C12.3333 16.1901 12.6406 16.932 13.1876 17.479C13.7346 18.026 14.4765 18.3333 15.25 18.3333H32.75C33.5236 18.3333 34.2654 18.026 34.8124 17.479C35.3594 16.932 35.6667 16.1901 35.6667 15.4166V12.4999H38.5833C39.3569 12.4999 40.0988 12.8072 40.6457 13.3542C41.1927 13.9012 41.5 14.643 41.5 15.4166V50.4166ZM32.75 24.1666H15.25C14.4765 24.1666 13.7346 24.4739 13.1876 25.0209C12.6406 25.5678 12.3333 26.3097 12.3333 27.0833C12.3333 27.8568 12.6406 28.5987 13.1876 29.1456C13.7346 29.6926 14.4765 29.9999 15.25 29.9999H32.75C33.5236 29.9999 34.2654 29.6926 34.8124 29.1456C35.3594 28.5987 35.6667 27.8568 35.6667 27.0833C35.6667 26.3097 35.3594 25.5678 34.8124 25.0209C34.2654 24.4739 33.5236 24.1666 32.75 24.1666Z" fill="white"/>
</svg>
