<svg width="18" height="24" viewBox="0 0 18 24" fill="none" xmlns="http://www.w3.org/2000/svg">
<path fill-rule="evenodd" clip-rule="evenodd" d="M9 24C6.015 24 0 14.271 0 8.973C0 4.017 4.029 0 9 0C13.971 0 18 4.017 18 8.973C18 14.271 11.985 24 9 24ZM9 3.042C5.703 3.033 3.0195 5.685 3 8.973C3.3045 11.838 4.32 14.5785 5.958 16.953C6.648 18.084 7.431 19.158 8.304 20.154C8.658 20.529 9 20.838 9 20.838C9 20.838 9.345 20.538 9.6975 20.154C10.5705 19.1565 11.355 18.084 12.042 16.9515C13.677 14.5815 14.697 11.8365 15 8.9745C14.9805 5.6865 12.297 3.0345 9 3.0435V3.042ZM9 12.036C7.3575 12.0255 6.0345 10.6905 6.042 9.051C6.0495 7.416 7.386 6.093 9.027 6.096C10.671 6.102 12.0015 7.431 12 9.066C11.997 9.858 11.679 10.6155 11.115 11.172C10.554 11.727 9.792 12.042 9 12.036Z" fill="white"/>
</svg>
