<svg width="22" height="28" viewBox="0 0 22 28" fill="none" xmlns="http://www.w3.org/2000/svg">
<path d="M13.8655 6.74657H17.6673L16.8283 7.81324C16.6305 8.06306 16.5195 8.40099 16.5195 8.75324C16.5195 9.10549 16.6305 9.44342 16.8283 9.69324C17.0273 9.94157 17.2965 10.081 17.577 10.081C17.8576 10.081 18.1267 9.94157 18.3257 9.69324L20.9805 6.35991C21.1783 6.11009 21.2893 5.77215 21.2893 5.41991C21.2893 5.06766 21.1783 4.72972 20.9805 4.47991L18.3257 1.14657C18.1225 0.928137 17.8612 0.813995 17.5939 0.826957C17.3267 0.839919 17.0731 0.979028 16.884 1.21649C16.6949 1.45395 16.5841 1.77227 16.5738 2.10783C16.5634 2.4434 16.6544 2.7715 16.8283 3.02657L17.6673 4.07991H13.8655C13.5839 4.07991 13.3137 4.22038 13.1146 4.47043C12.9154 4.72048 12.8036 5.05962 12.8036 5.41324C12.8036 5.76686 12.9154 6.106 13.1146 6.35605C13.3137 6.6061 13.5839 6.74657 13.8655 6.74657V6.74657ZM18.6443 15.3332C18.4106 15.3332 18.1664 15.2399 17.9328 15.1732C17.4596 15.0423 16.9947 14.8686 16.5416 14.6532C16.049 14.4282 15.5074 14.4399 15.0212 14.686C14.535 14.9322 14.1385 15.3954 13.908 15.9866L13.6743 16.5866C12.64 15.8641 11.6896 14.9669 10.8496 13.9199C10.0157 12.8653 9.30106 11.6719 8.72568 10.3732L9.17169 9.99991C9.64253 9.71046 10.0115 9.21261 10.2075 8.60216C10.4036 7.99171 10.4129 7.31179 10.2336 6.69324C10.065 6.12313 9.92667 5.53964 9.81948 4.94657C9.76638 4.65324 9.72391 4.34657 9.69205 4.03991C9.56309 3.10073 9.1713 2.25023 8.58722 1.64156C8.00315 1.03289 7.26518 0.706051 6.50621 0.719905H3.32037C2.8627 0.71451 2.40948 0.83299 1.99156 1.06728C1.57364 1.30157 1.20084 1.64617 0.898523 2.07761C0.596208 2.50906 0.371483 3.01723 0.239646 3.56752C0.107809 4.11782 0.0719557 4.69732 0.134526 5.26657C0.700266 10.8524 2.73208 16.0424 5.90902 20.0168C9.08597 23.9911 13.227 26.5233 17.6779 27.2132H18.0814C18.8645 27.2147 19.6206 26.8539 20.2053 26.1999C20.5413 25.8226 20.8097 25.3601 20.9927 24.843C21.1758 24.3259 21.2694 23.7658 21.2673 23.1999V19.1999C21.2543 18.2738 20.9856 17.382 20.5073 16.6768C20.0289 15.9716 19.3704 15.4967 18.6443 15.3332V15.3332ZM19.1752 23.3332C19.175 23.5226 19.1427 23.7096 19.0805 23.8821C19.0182 24.0545 18.9274 24.2083 18.8142 24.3332C18.6955 24.4619 18.5568 24.558 18.4068 24.6154C18.2569 24.6728 18.099 24.6902 17.9434 24.6666C13.9663 24.0263 10.2721 21.7419 7.44361 18.1736C4.61509 14.6054 2.81319 9.95636 2.32214 4.95991C2.30524 4.7646 2.32005 4.56701 2.36568 4.37909C2.41131 4.19117 2.48681 4.01682 2.58762 3.86657C2.68714 3.72435 2.80964 3.61036 2.94696 3.5322C3.08429 3.45403 3.2333 3.41348 3.38408 3.41324H6.56992C6.81688 3.40634 7.05802 3.50774 7.25185 3.7C7.44567 3.89225 7.58006 4.16333 7.63187 4.46657C7.67435 4.83102 7.72745 5.19102 7.79116 5.54657C7.91384 6.24943 8.0771 6.94015 8.27966 7.61324L6.79293 8.47991C6.66581 8.55313 6.55147 8.65717 6.45646 8.78603C6.36146 8.9149 6.28766 9.06606 6.23931 9.23083C6.19096 9.39561 6.16901 9.57075 6.17472 9.7462C6.18043 9.92166 6.21368 10.094 6.27258 10.2532C7.80093 14.3636 10.4325 17.6676 13.7062 19.5866C13.9648 19.7199 14.2547 19.7199 14.5133 19.5866C14.6457 19.5271 14.7674 19.4352 14.8713 19.3162C14.9753 19.1971 15.0593 19.0534 15.1186 18.8932L15.777 17.0266C16.326 17.2731 16.8863 17.4779 17.4549 17.6399C17.7381 17.7199 18.0248 17.7866 18.3151 17.8399C18.5566 17.905 18.7725 18.0737 18.9256 18.317C19.0787 18.5604 19.1595 18.8632 19.154 19.1732L19.1752 23.3332Z" fill="white"/>
</svg>
